<?xml version="1.0" encoding="UTF-8"?>
<svg version="1.1" xmlns="http://www.w3.org/2000/svg" width="390" height="389">
<path d="M0 0 C1.45764051 -0.00406941 2.91527793 -0.00941336 4.37290955 -0.01593018 C8.31713158 -0.0295658 12.26111727 -0.02432075 16.20534325 -0.01479292 C20.34071852 -0.0071768 24.47607409 -0.01424734 28.6114502 -0.01895142 C35.55496845 -0.02440329 42.49839085 -0.01723229 49.44189453 -0.00292969 C57.45982498 0.01339576 65.47752654 0.00810685 73.49545145 -0.0084089 C80.38993232 -0.02203998 87.28434444 -0.02393551 94.17883444 -0.0160929 C98.29203637 -0.01142528 102.40513085 -0.01076636 106.51832581 -0.02070236 C110.38604464 -0.02939342 114.25346949 -0.02331135 118.12115669 -0.00601959 C119.53726782 -0.00206613 120.95340385 -0.00316922 122.36950493 -0.00980759 C137.58529377 -0.07453832 137.58529377 -0.07453832 143.78320312 5.22021484 C144.33363281 5.87376953 144.8840625 6.52732422 145.45117188 7.20068359 C146.29615234 8.16941406 146.29615234 8.16941406 147.15820312 9.15771484 C151.02430095 14.98236355 150.94037303 20.9026813 150.94506836 27.64111328 C150.95339188 28.65980499 150.96171539 29.6784967 150.97029114 30.72805786 C150.99434472 34.08876391 151.00315804 37.44927564 151.00976562 40.81005859 C151.01873604 43.15407366 151.02785797 45.49808814 151.03712463 47.84210205 C151.05360499 52.75461212 151.06131293 57.66705411 151.06420898 62.57958984 C151.06958917 68.85856575 151.10725926 75.13689725 151.15295315 81.41569138 C151.18277203 86.25773424 151.18993362 91.09962289 151.19093513 95.94174957 C151.19512842 98.25569864 151.20752662 100.56964854 151.22845268 102.88350677 C151.25546368 106.12870453 151.25051163 109.37242109 151.23803711 112.61767578 C151.2528714 113.56347504 151.26770569 114.50927429 151.2829895 115.48373413 C151.2084769 122.32913278 149.51079234 127.69725152 145.63867188 133.38818359 C139.99153117 138.7642625 134.46481604 141.63354527 126.57974243 141.64888 C125.36293289 141.65596481 124.14612335 141.66304962 122.8924408 141.67034912 C121.55215417 141.66805551 120.21186789 141.66554584 118.87158203 141.6628418 C117.45364616 141.6671912 116.03571264 141.67237512 114.61778259 141.67832947 C110.77266343 141.6917071 106.92764264 141.69229945 103.08250475 141.68976617 C99.86937622 141.68869548 96.65626752 141.6935824 93.44314325 141.69837159 C85.86051788 141.7094628 78.27794205 141.70990655 70.6953125 141.70385742 C62.88078898 141.69781899 55.06644556 141.71012615 47.25195277 141.73142749 C40.53586291 141.74905953 33.8198303 141.75504227 27.10371816 141.75178975 C23.09555055 141.74997908 19.08751138 141.75259126 15.07936478 141.76650429 C11.30853778 141.77910393 7.53799087 141.77711853 3.76716805 141.7640934 C2.38652895 141.76173259 1.00587001 141.76444454 -0.37474632 141.77271652 C-10.11721555 141.82686038 -16.63265033 141.24166677 -24.17382812 134.63818359 C-25.29724609 133.68685547 -25.29724609 133.68685547 -26.44335938 132.71630859 C-31.10915585 127.05273487 -30.64964232 119.93455682 -30.62011719 112.95825195 C-30.62362183 111.93298904 -30.62712646 110.90772614 -30.6307373 109.85139465 C-30.63950911 106.47686914 -30.6337219 103.10255483 -30.62695312 99.72802734 C-30.62830098 97.37585917 -30.63024251 95.02369127 -30.63275146 92.67152405 C-30.63569648 87.74819276 -30.63142466 82.82493416 -30.62207031 77.90161133 C-30.61066995 71.59446147 -30.617243 65.28748173 -30.62921524 58.9803381 C-30.63644525 54.12560242 -30.63414075 49.27090702 -30.62895966 44.41617012 C-30.62762665 42.09057152 -30.62925865 39.76496924 -30.63391876 37.43937492 C-30.63900333 34.18905839 -30.63124664 30.93901679 -30.62011719 27.6887207 C-30.62416565 26.73011139 -30.62821411 25.77150208 -30.63238525 24.78384399 C-30.5888899 17.91953885 -29.83049982 12.53933925 -25.17382812 7.20068359 C-24.62339844 6.54712891 -24.07296875 5.89357422 -23.50585938 5.22021484 C-16.52988235 -0.73922636 -8.72261284 -0.04088967 0 0 Z " fill="#5B325D" transform="translate(132.361328125,157.61181640625)"/>
<path d="M0 0 C1.45672343 -0.00457431 2.91344471 -0.00988354 4.37016296 -0.0158844 C7.41019504 -0.02476967 10.4499638 -0.02244649 13.48999023 -0.01245117 C17.34950204 -0.00098627 21.20809543 -0.02115747 25.06748676 -0.05036831 C28.07304988 -0.06888636 31.07839939 -0.06840688 34.08400536 -0.06273079 C35.50510124 -0.06257937 36.92621332 -0.0684721 38.3472538 -0.08102226 C54.80262657 -0.20588238 65.9998334 3.7732351 78.296875 14.61328125 C87.97872682 24.21431627 91.31684062 36.13629156 91.41015625 49.40234375 C91.39251466 53.24817003 91.30138394 57.08922689 91.19921875 60.93359375 C91.16903932 62.93225086 91.1416778 64.93095258 91.1171875 66.9296875 C91.05707964 71.76636628 90.93958687 76.59667844 90.82421875 81.43359375 C82.24421875 81.43359375 73.66421875 81.43359375 64.82421875 81.43359375 C64.78683594 79.30019531 64.74945313 77.16679687 64.7109375 74.96875 C64.66455855 72.87351972 64.61338513 70.77845663 64.56176758 68.68334961 C64.52877282 67.24139805 64.50066398 65.79932523 64.4777832 64.35717773 C64.29497184 53.13567159 63.49606828 42.30852877 55.82421875 33.43359375 C47.54428323 26.38816669 41.2793744 23.12550358 30.5 23.09765625 C29.59855759 23.09099945 28.69711517 23.08434265 27.76835632 23.07748413 C25.86292554 23.06737749 23.95745951 23.06266649 22.05200195 23.06298828 C19.16361692 23.0586343 16.27678491 23.02234729 13.38867188 22.984375 C0.077264 22.74748394 0.077264 22.74748394 -12.17578125 27.43359375 C-13.18511719 28.03558594 -14.19445312 28.63757813 -15.234375 29.2578125 C-16.01941406 29.87269531 -16.80445313 30.48757812 -17.61328125 31.12109375 C-18.41636719 31.72308594 -19.21945313 32.32507813 -20.046875 32.9453125 C-25.62533119 39.46545304 -25.67153439 47.78076451 -25.86328125 55.99609375 C-25.96640625 59.44046875 -26.06953125 62.88484375 -26.17578125 66.43359375 C-35.08578125 66.43359375 -43.99578125 66.43359375 -53.17578125 66.43359375 C-54.50997627 33.52345002 -54.50997627 33.52345002 -46.17578125 22.43359375 C-45.63953125 21.6240625 -45.10328125 20.81453125 -44.55078125 19.98046875 C-41.87318905 16.10353837 -39.00024291 13.22441712 -35.17578125 10.43359375 C-34.49515625 9.69109375 -34.49515625 9.69109375 -33.80078125 8.93359375 C-24.44109062 0.29387932 -12.02449479 -0.033417 0 0 Z " fill="#5A305C" transform="translate(174.17578125,71.56640625)"/>
<path d="M0 0 C3.59272246 2.11161668 6.07706061 4.23579697 8.3125 7.8125 C8.869375 8.658125 9.42625 9.50375 10 10.375 C12.25268793 14.55856329 12.44921333 18.14867088 12.4375 22.875 C12.44136719 24.43927734 12.44136719 24.43927734 12.4453125 26.03515625 C12.3125 28.8125 12.3125 28.8125 11.3125 31.8125 C7.37110922 30.14498852 4.5232188 27.58539351 1.3125 24.8125 C1.3125 28.4425 1.3125 32.0725 1.3125 35.8125 C2.6325 36.1425 3.9525 36.4725 5.3125 36.8125 C4.94004156 39.38136775 4.63403763 40.53378397 2.640625 42.26171875 C-4.44955071 46.4865039 -4.44955071 46.4865039 -8.6875 46.8125 C-9.76 46.895 -10.8325 46.9775 -11.9375 47.0625 C-19.05135495 46.588243 -24.85124727 44.51520893 -30.1171875 39.62890625 C-35.30588866 33.62705043 -38.03473321 27.03407803 -37.89453125 19.14453125 C-37.24782957 11.85998591 -32.73277876 6.69878888 -27.6875 1.8125 C-20.11169656 -4.50066954 -8.69480955 -4.07649825 0 0 Z " fill="#5D355F" transform="translate(226.6875,206.1875)"/>
<path d="M0 0 C7.26523462 4.25549408 13.70538666 9.7403504 16.8125 17.7578125 C19.14605654 27.99629181 17.92685674 38.04028401 13.4375 47.5 C14.076875 47.809375 14.71625 48.11875 15.375 48.4375 C17.4375 49.5 17.4375 49.5 18.4375 50.5 C18.50955511 52.18608966 18.52136068 53.87500659 18.5 55.5625 C18.49097656 56.48160156 18.48195313 57.40070313 18.47265625 58.34765625 C18.46105469 59.05792969 18.44945312 59.76820313 18.4375 60.5 C17.7775 60.5 17.1175 60.5 16.4375 60.5 C14.9296875 58.96875 14.9296875 58.96875 13.3125 57 C12.77367187 56.3503125 12.23484375 55.700625 11.6796875 55.03125 C11.26976562 54.5259375 10.85984375 54.020625 10.4375 53.5 C6.52321359 54.27415887 3.89447381 56.03423841 0.6328125 58.24609375 C-6.95738481 62.58141997 -16.06713137 62.6504145 -24.5625 61.5 C-33.47255874 58.73039103 -40.04375389 53.47477898 -45.375 45.9375 C-49.47337961 37.52503659 -50.3370859 28.11734728 -47.5 19.13671875 C-43.04808816 9.61591816 -36.66166356 2.36353115 -26.8125 -1.64453125 C-17.84149804 -4.00588874 -8.49109725 -3.92310189 0 0 Z M-36 15 C-39.91825442 19.97108179 -41.04940055 24.88939826 -40.87109375 31.140625 C-39.84880825 38.95657994 -35.23790781 45.2564167 -29.5625 50.5 C-22.74571132 54.72640898 -15.88942494 55.34993168 -8.0625 53.8125 C-3.81750466 52.22062675 -1.0407527 50.41037471 2.4375 47.5 C2.4375 46.51 2.4375 45.52 2.4375 44.5 C1.1175 44.17 -0.2025 43.84 -1.5625 43.5 C-1.5625 39.87 -1.5625 36.24 -1.5625 32.5 C0.45572917 34.32291667 2.47395833 36.14583333 4.4921875 37.96875 C6.28681098 39.70617272 6.28681098 39.70617272 8.4375 39.5 C10.3654581 33.71612571 10.54188271 26.33181897 8.1875 20.625 C7.61 19.59375 7.0325 18.5625 6.4375 17.5 C5.880625 16.46875 5.32375 15.4375 4.75 14.375 C1.19549285 9.955883 -3.2019693 7.28684357 -8.5625 5.5 C-20.60756424 4.35904068 -27.65277299 6.03372027 -36 15 Z " fill="#F6F5F6" transform="translate(229.5625,198.5)"/>
<path d="M0 0 C0 2 0 2 -1.3984375 4.1328125 C-5.35123647 6.96980636 -8.91440072 6.17587832 -13.625 5.875 C-20.87772628 5.63957255 -26.18664579 5.77841164 -32.21875 10.28125 C-34.74863975 12.72237169 -36.36774149 14.87150453 -38 18 C-38.350625 18.59296875 -38.70125 19.1859375 -39.0625 19.796875 C-41.43116919 25.3632476 -41.03784586 32.3445461 -38.8671875 37.8984375 C-34.56437137 45.40020594 -29.39554287 50.34141143 -21 53 C-16.20852369 53.42505032 -11.87844315 53.2016099 -7.1875 52.125 C-4 52 -4 52 -2.4609375 53.26953125 C-1.0625 54.9375 -1.0625 54.9375 1 58 C-5.06069888 60.69364395 -10.5081827 61.35152412 -17.0625 61.4375 C-17.81772949 61.45941406 -18.57295898 61.48132813 -19.35107422 61.50390625 C-28.84988222 61.4708741 -35.03191599 56.67651138 -41.79296875 50.3828125 C-48.56244325 43.07417631 -49.53833751 34.63471135 -49.33984375 25.08984375 C-49.03412401 19.55771177 -47.17296937 15.50043614 -44 11 C-43.5153125 10.28328125 -43.030625 9.5665625 -42.53125 8.828125 C-32.51155166 -4.23677578 -14.39134669 -7.12913475 0 0 Z " fill="#F5F4F5" transform="translate(185,199)"/>
<path d="M0 0 C5.94 0 11.88 0 18 0 C18.09765625 9.27734375 18.09765625 9.27734375 18 12 C17 13 17 13 13.18359375 13.09765625 C11.60153318 13.09098089 10.01948841 13.07901875 8.4375 13.0625 C7.63119141 13.05798828 6.82488281 13.05347656 5.99414062 13.04882812 C3.99606244 13.03700518 1.99802217 13.01906914 0 13 C0 8.71 0 4.42 0 0 Z " fill="#EFEEF1" transform="translate(265,211)"/>
<path d="M0 0 C1.58206057 0.00667536 3.16410534 0.0186375 4.74609375 0.03515625 C5.55240234 0.03966797 6.35871094 0.04417969 7.18945312 0.04882812 C9.18753131 0.06065107 11.18557158 0.07858711 13.18359375 0.09765625 C13.21045928 2.07675023 13.2299275 4.05594596 13.24609375 6.03515625 C13.25769531 7.13730469 13.26929688 8.23945313 13.28125 9.375 C13.18359375 12.09765625 13.18359375 12.09765625 12.18359375 13.09765625 C9.32091808 13.17090793 6.48287475 13.1900383 3.62109375 13.16015625 C2.81478516 13.15564453 2.00847656 13.15113281 1.17773438 13.14648438 C-0.82034381 13.13466143 -2.81838408 13.11672539 -4.81640625 13.09765625 C-4.84327178 11.11856227 -4.86274 9.13936654 -4.87890625 7.16015625 C-4.89050781 6.05800781 -4.90210938 4.95585937 -4.9140625 3.8203125 C-4.76201869 -0.41866885 -4.42989555 0.11335454 0 0 Z " fill="#EDEDF0" transform="translate(269.81640625,255.90234375)"/>
<path d="M0 0 C1.12535156 0.00580078 1.12535156 0.00580078 2.2734375 0.01171875 C3.02367187 0.00785156 3.77390625 0.00398437 4.546875 0 C10.14682697 0.01010822 10.14682697 0.01010822 11.2734375 1.13671875 C11.37194921 2.96787758 11.40316379 4.80291808 11.3984375 6.63671875 C11.40230469 8.1371875 11.40230469 8.1371875 11.40625 9.66796875 C11.2734375 12.13671875 11.2734375 12.13671875 10.2734375 13.13671875 C7.41076183 13.20997043 4.5727185 13.2291008 1.7109375 13.19921875 C0.90462891 13.19470703 0.09832031 13.19019531 -0.73242188 13.18554688 C-2.73050006 13.17372393 -4.72854033 13.15578789 -6.7265625 13.13671875 C-6.75342803 11.15762477 -6.77289625 9.17842904 -6.7890625 7.19921875 C-6.80066406 6.09707031 -6.81226563 4.99492187 -6.82421875 3.859375 C-6.64810794 -1.05059446 -4.35115078 0.00785406 0 0 Z " fill="#F2F0F3" transform="translate(271.7265625,187.86328125)"/>
<path d="M0 0 C5.61 0 11.22 0 17 0 C17 4.29 17 8.58 17 13 C14.35409986 13.02684679 11.70846904 13.04676357 9.0625 13.0625 C7.93038086 13.07506836 7.93038086 13.07506836 6.77539062 13.08789062 C4.85005687 13.09652441 2.92464419 13.05224333 1 13 C0 12 0 12 -0.09765625 9.27734375 C-0.06510417 6.18489583 -0.03255208 3.09244792 0 0 Z " fill="#F2F2F5" transform="translate(102,256)"/>
<path d="M0 0 C5.61 0 11.22 0 17 0 C17 4.29 17 8.58 17 13 C14.35409986 13.02684679 11.70846904 13.04676357 9.0625 13.0625 C7.93038086 13.07506836 7.93038086 13.07506836 6.77539062 13.08789062 C4.85005687 13.09652441 2.92464419 13.05224333 1 13 C0 12 0 12 -0.09765625 9.27734375 C-0.06510417 6.18489583 -0.03255208 3.09244792 0 0 Z " fill="#F4F4F6" transform="translate(102,211)"/>
<path d="M0 0 C1.48831242 0.00667405 2.97660807 0.01863442 4.46484375 0.03515625 C5.22345703 0.03966797 5.98207031 0.04417969 6.76367188 0.04882812 C8.64326246 0.06064945 10.52281274 0.07858547 12.40234375 0.09765625 C12.40234375 4.38765625 12.40234375 8.67765625 12.40234375 13.09765625 C9.75644361 13.12450304 7.11081279 13.14441982 4.46484375 13.16015625 C3.33272461 13.17272461 3.33272461 13.17272461 2.17773438 13.18554688 C0.25240062 13.19418066 -1.67301206 13.14989958 -3.59765625 13.09765625 C-4.59765625 12.09765625 -4.59765625 12.09765625 -4.73046875 9.62890625 C-4.72789063 8.62859375 -4.7253125 7.62828125 -4.72265625 6.59765625 C-4.72523437 5.59734375 -4.7278125 4.59703125 -4.73046875 3.56640625 C-4.51908829 -0.36278342 -4.09873227 0.11125766 0 0 Z " fill="#F7F6F7" transform="translate(106.59765625,187.90234375)"/>
<path d="M0 0 C1.58206057 0.00667536 3.16410534 0.0186375 4.74609375 0.03515625 C5.55240234 0.03966797 6.35871094 0.04417969 7.18945312 0.04882812 C9.18753131 0.06065107 11.18557158 0.07858711 13.18359375 0.09765625 C13.18359375 4.05765625 13.18359375 8.01765625 13.18359375 12.09765625 C7.24359375 12.09765625 1.30359375 12.09765625 -4.81640625 12.09765625 C-4.9140625 3.6015625 -4.9140625 3.6015625 -4.81640625 1.09765625 C-3.81640625 0.09765625 -3.81640625 0.09765625 0 0 Z " fill="#F2F2F4" transform="translate(269.81640625,233.90234375)"/>
<path d="M0 0 C5.61 0 11.22 0 17 0 C17 3.96 17 7.92 17 12 C11.39 12 5.78 12 0 12 C0 8.04 0 4.08 0 0 Z " fill="#F7F7F8" transform="translate(102,234)"/>
<path d="M0 0 C0.33 0.99 0.66 1.98 1 3 C-0.36328125 4.9375 -0.36328125 4.9375 -2.3125 7 C-6.86753438 11.87841411 -8.2499737 14.37643337 -8.125 21.1875 C-8.10695312 22.45980469 -8.08890625 23.73210937 -8.0703125 25.04296875 C-8.04710937 26.01878906 -8.02390625 26.99460938 -8 28 C-10.6930748 25.3069252 -10.39344456 23.76495887 -10.5 20 C-10.40758064 13.05314452 -8.45942944 8.29812947 -4 3 C-1.796875 1.2265625 -1.796875 1.2265625 0 0 Z " fill="#685867" transform="translate(154,208)"/>
</svg>
