<?xml version="1.0" encoding="UTF-8"?>
<svg version="1.1" xmlns="http://www.w3.org/2000/svg" width="192" height="192">
<path d="M0 0 C1.72212959 -0.01818031 1.72212959 -0.01818031 3.47904968 -0.03672791 C7.23812295 -0.06798519 10.99549091 -0.05567177 14.75463867 -0.03979492 C17.39198752 -0.04638659 20.02933276 -0.05460808 22.66667175 -0.06437683 C28.1816009 -0.07980339 33.69605235 -0.06947546 39.2109375 -0.04492188 C45.54728831 -0.01715677 51.88222348 -0.03645205 58.21845514 -0.07979757 C64.35993613 -0.12016513 70.50078506 -0.12070013 76.64237022 -0.10553551 C79.23406978 -0.1033956 81.82580189 -0.11176547 84.41742897 -0.13126564 C98.96397351 -0.22219766 110.25281596 0.08977918 122.86010742 7.79223633 C123.85010742 8.12223633 124.84010742 8.45223633 125.86010742 8.79223633 C126.26229492 9.68942383 126.26229492 9.68942383 126.67260742 10.60473633 C128.35401544 13.70206688 130.95605102 14.87679487 133.86010742 16.79223633 C134.19010742 17.78223633 134.52010742 18.77223633 134.86010742 19.79223633 C135.85871175 20.79363005 136.85888717 21.79345807 137.86010742 22.79223633 C139.21166992 24.92114258 139.21166992 24.92114258 140.48510742 27.35473633 C141.12319336 28.53229492 141.12319336 28.53229492 141.77416992 29.73364258 C144.43535052 37.22898218 144.01192106 45.67240586 144.02124023 53.54345703 C144.02620514 54.56766754 144.03117004 55.59187805 144.0362854 56.64712524 C144.05077929 60.00409641 144.05768668 63.36102038 144.06323242 66.71801758 C144.06747349 68.45064881 144.06747349 68.45064881 144.07180023 70.2182827 C144.08673907 76.32814127 144.0960027 82.43797655 144.1003418 88.54785156 C144.10582617 94.82847836 144.12986905 101.10888836 144.15831375 107.38944721 C144.17701524 112.24788523 144.18214967 117.1062717 144.18367767 121.96474266 C144.18668651 124.27898535 144.19465454 126.59322751 144.20786285 128.90743446 C144.33110351 152.15422473 144.33110351 152.15422473 140.86010742 162.79223633 C140.52795227 163.85916214 140.19579712 164.92608795 139.85357666 166.02534485 C138.84329962 168.8390474 138.00418883 169.82682837 135.86010742 171.79223633 C135.55073242 172.47286133 135.24135742 173.15348633 134.92260742 173.85473633 C133.86010742 175.79223633 133.86010742 175.79223633 131.98120117 176.69458008 C129.59469972 177.92958359 128.50164439 179.18678674 126.86010742 181.29223633 C124.72449646 184.03138951 123.04277512 185.40270206 119.86010742 186.79223633 C118.54526367 187.41291992 118.54526367 187.41291992 117.20385742 188.04614258 C116.26541992 188.47797852 115.32698242 188.90981445 114.36010742 189.35473633 C113.42166992 189.78915039 112.48323242 190.22356445 111.51635742 190.67114258 C107.62198034 192.31479879 104.34752826 192.91747482 100.12522888 192.93940735 C99.17641342 192.94656265 98.22759796 192.95371796 97.25003052 192.96109009 C96.21570892 192.96377899 95.18138733 192.9664679 94.11572266 192.96923828 C93.02090073 192.97580948 91.9260788 192.98238068 90.79808044 192.989151 C87.17161998 193.0088745 83.54520095 193.02054603 79.91870117 193.03051758 C78.05822993 193.03663087 78.05822993 193.03663087 76.16017342 193.04286766 C70.26925191 193.06157676 64.37834352 193.07614135 58.48739952 193.08447963 C51.71085097 193.09423212 44.9346308 193.12050221 38.15819782 193.16098052 C32.27104253 193.19492651 26.38399608 193.20663684 20.49675179 193.21068382 C18.00221598 193.21554216 15.50768349 193.2271345 13.0132122 193.24572182 C9.51196389 193.27018442 6.01156231 193.26913445 2.51025391 193.26220703 C0.98002594 193.28142212 0.98002594 193.28142212 -0.58111572 193.30102539 C-10.01639898 193.23338139 -17.88164089 190.23898724 -26.13989258 185.79223633 C-26.79989258 185.46223633 -27.45989258 185.13223633 -28.13989258 184.79223633 C-29.10382078 183.68979645 -30.03786982 182.56099302 -30.95239258 181.41723633 C-33.42239961 178.45080632 -35.77695204 176.71391664 -39.13989258 174.79223633 C-39.46989258 173.80223633 -39.79989258 172.81223633 -40.13989258 171.79223633 C-41.06801758 170.83317383 -41.06801758 170.83317383 -42.01489258 169.85473633 C-45.20429378 165.25824636 -46.00832882 160.21221053 -47.13989258 154.79223633 C-47.31454544 154.11668701 -47.4891983 153.4411377 -47.66914368 152.74511719 C-48.36684576 148.36862023 -48.28724055 144.03367197 -48.28515625 139.60864258 C-48.29019417 138.07342201 -48.29019417 138.07342201 -48.29533386 136.50718689 C-48.30483251 133.12302434 -48.30678683 129.73891138 -48.30786133 126.35473633 C-48.31107607 123.99405904 -48.3144403 121.63338195 -48.31794739 119.27270508 C-48.32393694 114.31973815 -48.3257876 109.36678866 -48.32519531 104.41381836 C-48.32509402 98.09386103 -48.33871266 91.77401689 -48.35596752 85.4540863 C-48.36713819 80.57419328 -48.36911292 75.69432711 -48.36858559 70.81442261 C-48.36975936 68.48623263 -48.37414702 66.15804181 -48.38191795 63.8298645 C-48.4829927 30.40248322 -48.4829927 30.40248322 -40.13989258 19.79223633 C-39.47989258 19.46223633 -38.81989258 19.13223633 -38.13989258 18.79223633 C-37.85114258 18.15286133 -37.56239258 17.51348633 -37.26489258 16.85473633 C-36.13989258 14.79223633 -36.13989258 14.79223633 -34.20239258 13.85473633 C-31.89375124 12.90521924 -31.89375124 12.90521924 -30.70239258 10.22973633 C-30.18676758 9.42536133 -29.67114258 8.62098633 -29.13989258 7.79223633 C-27.47523577 7.44900666 -25.80816405 7.11744271 -24.13989258 6.79223633 C-22.26712451 5.82862324 -20.41690438 4.82045091 -18.58613586 3.7792511 C-12.2188122 0.53002018 -7.06684601 -0.07080603 0 0 Z M-45.13989258 30.79223633 C-44.13989258 32.79223633 -44.13989258 32.79223633 -44.13989258 32.79223633 Z M139.86010742 30.79223633 C140.86010742 32.79223633 140.86010742 32.79223633 140.86010742 32.79223633 Z M-46.13989258 32.79223633 C-45.13989258 34.79223633 -45.13989258 34.79223633 -45.13989258 34.79223633 Z M140.86010742 32.79223633 C141.86010742 34.79223633 141.86010742 34.79223633 141.86010742 34.79223633 Z " fill="#ADADAD" transform="translate(48.139892578125,-0.792236328125)"/>
<path d="M0 0 C1.19493073 -0.0099852 1.19493073 -0.0099852 2.41400146 -0.02017212 C4.09840594 -0.03028341 5.78285036 -0.03498961 7.46728516 -0.03466797 C10.024449 -0.0390243 12.579862 -0.07531057 15.13671875 -0.11328125 C16.77863998 -0.11915341 18.42056935 -0.12312013 20.0625 -0.125 C21.195737 -0.14655655 21.195737 -0.14655655 22.35186768 -0.16854858 C29.03366158 -0.11201417 34.17762082 2.02055104 39.1875 6.44921875 C39.80109375 7.17496094 40.4146875 7.90070312 41.046875 8.6484375 C41.67078125 9.36644531 42.2946875 10.08445312 42.9375 10.82421875 C48.63113065 18.5154047 49.34149493 23.22661853 49.046875 32.7734375 C49.02882813 33.88654297 49.01078125 34.99964844 48.9921875 36.14648438 C48.94530819 38.87720396 48.87970319 41.60611136 48.796875 44.3359375 C49.41046875 44.62339844 50.0240625 44.91085938 50.65625 45.20703125 C53.71900601 46.82224382 55.01785337 48.34972262 56.796875 51.3359375 C57.12242594 54.36763061 57.03498303 57.30006007 56.796875 60.3359375 C56.136875 60.3359375 55.476875 60.3359375 54.796875 60.3359375 C54.796875 59.6759375 54.796875 59.0159375 54.796875 58.3359375 C52.156875 58.3359375 49.516875 58.3359375 46.796875 58.3359375 C46.796875 59.9859375 46.796875 61.6359375 46.796875 63.3359375 C48.6840625 63.18125 48.6840625 63.18125 50.609375 63.0234375 C52.81640625 63.01953125 52.81640625 63.01953125 54.796875 63.3359375 C57.63745309 66.53158786 57.796875 68.0106418 57.796875 72.3359375 C56.806875 72.3359375 55.816875 72.3359375 54.796875 72.3359375 C54.796875 71.3459375 54.796875 70.3559375 54.796875 69.3359375 C52.156875 69.3359375 49.516875 69.3359375 46.796875 69.3359375 C46.796875 71.3159375 46.796875 73.2959375 46.796875 75.3359375 C48.034375 75.2328125 49.271875 75.1296875 50.546875 75.0234375 C54.04495194 75.01723524 54.54953976 75.11333578 57.296875 77.5859375 C58.796875 80.3359375 58.796875 80.3359375 58.796875 84.3359375 C57.476875 84.3359375 56.156875 84.3359375 54.796875 84.3359375 C54.796875 83.0159375 54.796875 81.6959375 54.796875 80.3359375 C52.156875 80.3359375 49.516875 80.3359375 46.796875 80.3359375 C46.796875 82.3159375 46.796875 84.2959375 46.796875 86.3359375 C48.034375 86.2328125 49.271875 86.1296875 50.546875 86.0234375 C54.04495194 86.01723524 54.54953976 86.11333578 57.296875 88.5859375 C58.796875 91.3359375 58.796875 91.3359375 58.796875 95.3359375 C57.476875 95.3359375 56.156875 95.3359375 54.796875 95.3359375 C54.796875 94.0159375 54.796875 92.6959375 54.796875 91.3359375 C52.156875 91.3359375 49.516875 91.3359375 46.796875 91.3359375 C46.796875 93.3159375 46.796875 95.2959375 46.796875 97.3359375 C48.01375 97.2328125 49.230625 97.1296875 50.484375 97.0234375 C54.02080908 97.02971891 54.73541072 97.29240031 57.796875 99.4609375 C59.796875 102.3359375 59.796875 102.3359375 60.359375 105.2109375 C59.60134801 109.42219857 58.27505062 111.8251887 55.796875 115.3359375 C52.24928365 116.77142295 48.37736485 116.51258994 44.60083008 116.57641602 C43.88318481 116.58941238 43.16553955 116.60240875 42.42614746 116.61579895 C34.93342119 116.74240193 27.43959961 116.7992284 19.94604492 116.85083008 C16.39658255 116.87756114 12.8484656 116.9262781 9.29956055 116.99438477 C5.00241744 117.07662177 0.70655387 117.11905645 -3.59133339 117.13389397 C-5.22242672 117.14609103 -6.85348121 117.17200662 -8.48412132 117.21234322 C-22.80227617 117.54877092 -22.80227617 117.54877092 -28.6496582 112.53491211 C-32.29129447 108.71978091 -34.15066886 105.90962173 -34.328125 100.5859375 C-34.286875 99.5134375 -34.245625 98.4409375 -34.203125 97.3359375 C-31.233125 97.3359375 -28.263125 97.3359375 -25.203125 97.3359375 C-25.203125 95.3559375 -25.203125 93.3759375 -25.203125 91.3359375 C-28.173125 91.3359375 -31.143125 91.3359375 -34.203125 91.3359375 C-34.203125 89.6859375 -34.203125 88.0359375 -34.203125 86.3359375 C-31.233125 86.3359375 -28.263125 86.3359375 -25.203125 86.3359375 C-25.203125 84.3559375 -25.203125 82.3759375 -25.203125 80.3359375 C-28.173125 80.3359375 -31.143125 80.3359375 -34.203125 80.3359375 C-34.203125 78.6859375 -34.203125 77.0359375 -34.203125 75.3359375 C-31.233125 75.3359375 -28.263125 75.3359375 -25.203125 75.3359375 C-25.698125 72.3659375 -25.698125 72.3659375 -26.203125 69.3359375 C-30.163125 68.8409375 -30.163125 68.8409375 -34.203125 68.3359375 C-34.203125 67.0159375 -34.203125 65.6959375 -34.203125 64.3359375 C-31.233125 64.3359375 -28.263125 64.3359375 -25.203125 64.3359375 C-25.203125 62.3559375 -25.203125 60.3759375 -25.203125 58.3359375 C-28.173125 58.3359375 -31.143125 58.3359375 -34.203125 58.3359375 C-34.92232589 51.50352906 -34.92232589 51.50352906 -32.9375 48.28125 C-30.85744608 45.84778886 -29.08619904 43.77747452 -26.203125 42.3359375 C-24.23278012 42.21577078 -22.25847564 42.15858417 -20.28466797 42.13061523 C-19.04353241 42.11067001 -17.80239685 42.09072479 -16.52365112 42.07017517 C-15.1642062 42.0531909 -13.80475995 42.03631209 -12.4453125 42.01953125 C-11.05810933 41.99896169 -9.67091243 41.97796522 -8.28372192 41.95655823 C-4.63084995 41.90133769 -0.97792141 41.85192839 2.67504883 41.80371094 C6.40190674 41.75349575 10.12868241 41.69780979 13.85546875 41.64257812 C21.16920121 41.53499679 28.48300201 41.43355182 35.796875 41.3359375 C35.136875 41.0059375 34.476875 40.6759375 33.796875 40.3359375 C33.77109375 39.17835937 33.7453125 38.02078125 33.71875 36.828125 C33.66244151 35.28902622 33.6050948 33.74996517 33.546875 32.2109375 C33.53269531 31.45039062 33.51851563 30.68984375 33.50390625 29.90625 C33.27782878 24.66125271 32.39402715 21.40385789 28.796875 17.3359375 C23.87287609 13.92590605 19.27184781 13.82734531 13.484375 13.8984375 C12.64003906 13.90528564 11.79570313 13.91213379 10.92578125 13.91918945 C5.12233588 14.06910431 -0.60387142 14.40177206 -5.203125 18.3359375 C-7.9922243 22.08074216 -8.63667051 25.02646585 -8.890625 29.6484375 C-8.99375 31.5253125 -9.096875 33.4021875 -9.203125 35.3359375 C-13.163125 35.3359375 -17.123125 35.3359375 -21.203125 35.3359375 C-21.203125 34.6759375 -21.203125 34.0159375 -21.203125 33.3359375 C-22.193125 33.3359375 -23.183125 33.3359375 -24.203125 33.3359375 C-25.00183304 15.05439791 -25.00183304 15.05439791 -20.203125 9.3359375 C-13.81153573 2.77408048 -9.25725619 0.02698232 0 0 Z " fill="#5B335E" transform="translate(84.203125,35.6640625)"/>
<path d="M0 0 C1.19493073 -0.0099852 1.19493073 -0.0099852 2.41400146 -0.02017212 C4.09840594 -0.03028341 5.78285036 -0.03498961 7.46728516 -0.03466797 C10.024449 -0.0390243 12.579862 -0.07531057 15.13671875 -0.11328125 C16.77863998 -0.11915341 18.42056935 -0.12312013 20.0625 -0.125 C21.195737 -0.14655655 21.195737 -0.14655655 22.35186768 -0.16854858 C29.03366158 -0.11201417 34.17762082 2.02055104 39.1875 6.44921875 C39.80109375 7.17496094 40.4146875 7.90070312 41.046875 8.6484375 C41.67078125 9.36644531 42.2946875 10.08445312 42.9375 10.82421875 C51.81496843 22.81626119 48.796875 24.64403887 48.796875 43.3359375 C24.046875 43.3359375 -0.703125 43.3359375 -26.203125 43.3359375 C-26.203125 43.0059375 -26.203125 42.6759375 -26.203125 42.3359375 C4.486875 41.8409375 4.486875 41.8409375 35.796875 41.3359375 C34.806875 40.8409375 34.806875 40.8409375 33.796875 40.3359375 C33.77109375 39.17835937 33.7453125 38.02078125 33.71875 36.828125 C33.66244151 35.28902622 33.6050948 33.74996517 33.546875 32.2109375 C33.53269531 31.45039062 33.51851562 30.68984375 33.50390625 29.90625 C33.27782878 24.66125271 32.39402715 21.40385789 28.796875 17.3359375 C23.87287609 13.92590605 19.27184781 13.82734531 13.484375 13.8984375 C12.64003906 13.90528564 11.79570313 13.91213379 10.92578125 13.91918945 C5.12233588 14.06910431 -0.60387142 14.40177206 -5.203125 18.3359375 C-7.9922243 22.08074216 -8.63667051 25.02646585 -8.890625 29.6484375 C-8.99375 31.5253125 -9.096875 33.4021875 -9.203125 35.3359375 C-13.163125 35.3359375 -17.123125 35.3359375 -21.203125 35.3359375 C-21.203125 34.6759375 -21.203125 34.0159375 -21.203125 33.3359375 C-22.193125 33.3359375 -23.183125 33.3359375 -24.203125 33.3359375 C-25.00183304 15.05439791 -25.00183304 15.05439791 -20.203125 9.3359375 C-13.81153573 2.77408048 -9.25725619 0.02698232 0 0 Z " fill="#5C335E" transform="translate(84.203125,35.6640625)"/>
<path d="M0 0 C0.87527344 -0.00257812 1.75054687 -0.00515625 2.65234375 -0.0078125 C5.0625 0.125 5.0625 0.125 8.0625 1.125 C8.3925 2.115 8.7225 3.105 9.0625 4.125 C12.0344385 3.00048273 14.39690687 1.90206209 17.0625 0.125 C22.13697026 -0.56991153 27.35150931 -0.66195408 32 1.6875 C36.04759268 4.90905336 38.57472055 7.9328231 39.37109375 13.14453125 C39.51189999 17.47639378 38.66079163 21.12927092 37.0625 25.125 C37.7225 25.125 38.3825 25.125 39.0625 25.125 C39.0625 27.105 39.0625 29.085 39.0625 31.125 C38.4025 30.5475 37.7425 29.97 37.0625 29.375 C34.26802252 27.80821989 34.26802252 27.80821989 32.23046875 28.81640625 C31.57691406 29.18636719 30.92335937 29.55632812 30.25 29.9375 C25.24300912 32.769169 21.02249851 32.93311192 15.55859375 31.44140625 C13.36717446 30.72465096 11.21106961 29.96055485 9.0625 29.125 C9.0625 29.785 9.0625 30.445 9.0625 31.125 C-3.48422949 33.05673732 -3.48422949 33.05673732 -8.5625 29.9375 C-12.26584274 27.12295952 -14.45602227 24.56943318 -15.9375 20.125 C-16.47975459 15.45805478 -16.4073456 12.04728952 -14.25 7.8125 C-9.94853776 2.81350334 -6.61606005 -0.01943043 0 0 Z " fill="#5D3660" transform="translate(82.9375,96.875)"/>
<path d="M0 0 C4.18459301 1.72841885 6.20718739 3.84822343 8 8 C8.1875 11.8125 8.1875 11.8125 8 15 C6.68 15 5.36 15 4 15 C4 14.34 4 13.68 4 13 C3.34 13 2.68 13 2 13 C2 14.98 2 16.96 2 19 C2.66 19 3.32 19 4 19 C3 22 3 22 1.375 23.1875 C-1.96563554 24.330349 -4.48504745 24.36361578 -8 24 C-12.87070677 21.56464662 -15.15569877 19.12305898 -17 14 C-17.63188914 10.70013449 -17.61774635 8.91811843 -15.72265625 6.1015625 C-10.86297294 0.27944802 -7.54174592 -0.71888393 0 0 Z " fill="#5E3760" transform="translate(110,101)"/>
<path d="M0 0 C4.58054867 2.26564773 7.27167775 5.591245 8.87890625 10.3359375 C9.64033594 15.31896471 8.7409532 19.68082013 6.87890625 24.3359375 C7.53890625 24.3359375 8.19890625 24.3359375 8.87890625 24.3359375 C8.87890625 26.3159375 8.87890625 28.2959375 8.87890625 30.3359375 C8.21890625 29.7584375 7.55890625 29.1809375 6.87890625 28.5859375 C4.08442877 27.01915739 4.08442877 27.01915739 2.046875 28.02734375 C1.39332031 28.39730469 0.73976563 28.76726562 0.06640625 29.1484375 C-4.1289708 31.50981295 -7.3571475 32.3792048 -12.12109375 31.3359375 C-16.86237039 29.45846117 -20.14162861 26.94842019 -22.62109375 22.4609375 C-24.23873508 18.61181772 -24.73039556 15.52488747 -24.12109375 11.3359375 C-19.60072826 0.84868957 -11.27798909 -3.53086215 0 0 Z M-19.12109375 9.3359375 C-20.86883036 12.83141072 -19.95746055 16.61732202 -19.12109375 20.3359375 C-17.00001171 23.77355322 -15.01688525 26.11154589 -11.12109375 27.3359375 C-6.16017667 27.78692996 -3.08619901 27.45995983 0.87890625 24.3359375 C0.87890625 23.6759375 0.87890625 23.0159375 0.87890625 22.3359375 C0.21890625 22.3359375 -0.44109375 22.3359375 -1.12109375 22.3359375 C-1.12109375 20.3559375 -1.12109375 18.3759375 -1.12109375 16.3359375 C-0.46109375 16.3359375 0.19890625 16.3359375 0.87890625 16.3359375 C1.20890625 17.3259375 1.53890625 18.3159375 1.87890625 19.3359375 C2.86890625 19.0059375 3.85890625 18.6759375 4.87890625 18.3359375 C5.33434012 12.64301416 4.56137011 9.734436 0.87890625 5.3359375 C-6.77342044 0.68702922 -13.53031636 2.91319919 -19.12109375 9.3359375 Z " fill="#EFEEEF" transform="translate(113.12109375,97.6640625)"/>
<path d="M0 0 C0.87527344 -0.00257812 1.75054687 -0.00515625 2.65234375 -0.0078125 C5.0625 0.125 5.0625 0.125 8.0625 1.125 C7.7325 2.115 7.4025 3.105 7.0625 4.125 C6.25425781 4.13917969 5.44601563 4.15335937 4.61328125 4.16796875 C-2.36297244 4.20186455 -2.36297244 4.20186455 -8.125 7.5625 C-11.03457191 11.67603271 -11.36129302 14.03948381 -10.9375 19.125 C-8.91083762 22.82890021 -7.45705484 24.77863011 -3.9375 27.125 C-1.33871657 27.22187523 1.19026386 27.05857075 3.78515625 26.90234375 C4.53667969 26.97582031 5.28820312 27.04929687 6.0625 27.125 C6.7225 28.115 7.3825 29.105 8.0625 30.125 C3.89615643 32.14504537 0.67261279 32.67196253 -3.9375 32.125 C-8.40854629 30.05827326 -12.46261244 27.49244863 -14.9375 23.125 C-16.29432449 19.05452653 -16.46222254 15.38108283 -15.9375 11.125 C-12.48601282 4.3498585 -7.66004167 -0.02249645 0 0 Z " fill="#F1F0F1" transform="translate(82.9375,96.875)"/>
<path d="M0 0 C2.5 1.125 2.5 1.125 5 3 C5.78588825 6.84212036 4.99926029 9.41851688 3.25 12.8125 C1 16 1 16 -0.6819458 16.69212341 C-3.90365965 17.1200212 -7.09579474 17.13049923 -10.33886719 17.11352539 C-11.43702003 17.11374443 -11.43702003 17.11374443 -12.55735779 17.1139679 C-14.97056062 17.11327276 -17.3836857 17.10549908 -19.796875 17.09765625 C-21.47267617 17.09579065 -23.14847788 17.09436742 -24.82427979 17.09336853 C-29.23013826 17.08955452 -33.63596366 17.07973376 -38.04180908 17.06866455 C-42.53958692 17.05842643 -47.03737011 17.05386576 -51.53515625 17.04882812 C-60.35678535 17.0381105 -69.17838992 17.02104747 -78 17 C-78.33 16.34 -78.66 15.68 -79 15 C-78.06927673 14.99191315 -77.13855347 14.98382629 -76.17962646 14.97549438 C-67.40992902 14.89802144 -58.64038651 14.81027923 -49.87089157 14.71247292 C-45.36236399 14.66251957 -40.85385972 14.61618943 -36.34521484 14.578125 C-31.99440881 14.54126006 -27.64379833 14.49489679 -23.29315948 14.44193649 C-21.63301269 14.42339897 -19.97282398 14.40828862 -18.31261444 14.39665604 C-15.98782816 14.37978251 -13.66348912 14.35074523 -11.33886719 14.31884766 C-10.6519429 14.31668747 -9.96501862 14.31452728 -9.25727844 14.31230164 C-5.71105013 14.25011073 -2.95294006 14.07006648 0 12 C0.73796999 9.92072133 0.73796999 9.92072133 0.8125 7.5625 C0.88082031 6.78003906 0.94914062 5.99757812 1.01953125 5.19140625 C1.11080464 2.81948017 1.11080464 2.81948017 0 0 Z " fill="#747474" transform="translate(139,135)"/>
<path d="M0 0 C0.66 0 1.32 0 2 0 C2.3125 2.6875 2.3125 2.6875 2 6 C-0.4375 8.8125 -0.4375 8.8125 -3 11 C-3.33 11.33 -3.66 11.66 -4 12 C-6.37300869 12.09494733 -8.71678703 12.12559319 -11.09008789 12.11352539 C-11.83150528 12.11367142 -12.57292267 12.11381744 -13.33680725 12.1139679 C-15.79878621 12.11326865 -18.26069043 12.10547574 -20.72265625 12.09765625 C-22.42516539 12.09579211 -24.12767507 12.09436819 -25.83018494 12.09336853 C-30.31993073 12.08954302 -34.80964438 12.07971247 -39.29937744 12.06866455 C-43.87731491 12.05845113 -48.45525756 12.05387106 -53.03320312 12.04882812 C-62.02214957 12.03809022 -71.01107212 12.02101341 -80 12 C-80 11.34 -80 10.68 -80 10 C-79.10908157 9.99413376 -78.21816315 9.98826752 -77.30024719 9.98222351 C-68.89870955 9.92428787 -60.49743751 9.8522061 -52.09615803 9.76428509 C-47.77709638 9.71958289 -43.45812903 9.68032652 -39.13891602 9.65356445 C-34.96957836 9.62752984 -30.80060359 9.58712656 -26.63149071 9.53681374 C-25.04195868 9.52014604 -23.45236388 9.50863114 -21.86275673 9.50238609 C-19.63378606 9.49274366 -17.40574352 9.46468452 -15.17700195 9.43237305 C-13.90903275 9.42126999 -12.64106354 9.41016693 -11.33467102 9.39872742 C-7.73048606 8.96777415 -5.85577625 8.20602158 -3 6 C-1.17370206 2.93319201 -1.17370206 2.93319201 0 0 Z " fill="#333233" transform="translate(139,138)"/>
<path d="M0 0 C0.97195312 -0.01160156 1.94390625 -0.02320313 2.9453125 -0.03515625 C8.39551821 -0.0128802 12.26971806 0.35465106 17 3.375 C16.01 3.705 15.02 4.035 14 4.375 C13.505 3.88 13.505 3.88 13 3.375 C-1.80467731 2.0000029 -1.80467731 2.0000029 -15 7.375 C-17.7890993 11.11980466 -18.43354551 14.06552835 -18.6875 18.6875 C-18.790625 20.564375 -18.89375 22.44125 -19 24.375 C-22.96 24.375 -26.92 24.375 -31 24.375 C-31 23.715 -31 23.055 -31 22.375 C-31.99 22.045 -32.98 21.715 -34 21.375 C-29.71 21.705 -25.42 22.035 -21 22.375 C-21.04640625 21.42238281 -21.0928125 20.46976563 -21.140625 19.48828125 C-21.19476563 17.60689453 -21.19476563 17.60689453 -21.25 15.6875 C-21.29640625 14.44613281 -21.3428125 13.20476563 -21.390625 11.92578125 C-20.92628787 7.70495675 -20.06186444 6.26957714 -17 3.375 C-11.64053368 -0.36682252 -6.29220912 -0.07510594 0 0 Z " fill="#887189" transform="translate(94,46.625)"/>
<path d="M0 0 C3 4 3 4 3 27 C-21.75 27 -46.5 27 -72 27 C-72 26.67 -72 26.34 -72 26 C-71.23214172 25.98969254 -70.46428345 25.97938507 -69.67315674 25.96876526 C-62.43398426 25.87075501 -55.1948963 25.76823558 -47.95586014 25.66066074 C-44.23427487 25.60551538 -40.51268163 25.55210898 -36.79101562 25.50268555 C-33.19887329 25.45491804 -29.60682411 25.40257109 -26.0147934 25.34705925 C-24.64490837 25.32669172 -23.27499786 25.30796954 -21.90506744 25.29092598 C-19.9851543 25.26675789 -18.06532512 25.23617775 -16.14550781 25.20532227 C-14.50669647 25.18200584 -14.50669647 25.18200584 -12.83477783 25.15821838 C-10.11601231 25.11526968 -10.11601231 25.11526968 -8.05340576 24.42466736 C-6 24 -6 24 1 25 C0.505 12.625 0.505 12.625 0 0 Z " fill="#7B5F7C" transform="translate(130,52)"/>
<path d="M0 0 C1.53333984 0.02030273 1.53333984 0.02030273 3.09765625 0.04101562 C5.60732049 0.07619783 8.1158809 0.12542461 10.625 0.1875 C10.625 0.5175 10.625 0.8475 10.625 1.1875 C9.78690796 1.18580811 9.78690796 1.18580811 8.93188477 1.18408203 C-4.91654693 0.87429292 -4.91654693 0.87429292 -17.01171875 6.71484375 C-19.85076484 9.78166432 -19.65925031 12.75800458 -19.9375 16.8125 C-20.02128906 18.00101563 -20.10507813 19.18953125 -20.19140625 20.4140625 C-20.25199219 21.32929687 -20.31257813 22.24453125 -20.375 23.1875 C-23.675 23.1875 -26.975 23.1875 -30.375 23.1875 C-30.375 22.8575 -30.375 22.5275 -30.375 22.1875 C-27.405 22.1875 -24.435 22.1875 -21.375 22.1875 C-21.42140625 21.23488281 -21.4678125 20.28226563 -21.515625 19.30078125 C-21.56976563 17.41939453 -21.56976563 17.41939453 -21.625 15.5 C-21.67140625 14.25863281 -21.7178125 13.01726563 -21.765625 11.73828125 C-21.30128787 7.51745675 -20.43686444 6.08207714 -17.375 3.1875 C-11.93356726 -0.67173153 -6.39702171 -0.16095732 0 0 Z " fill="#755777" transform="translate(94.375,46.8125)"/>
<path d="M0 0 C3.09416181 4.12554908 3.37238817 4.65670976 3.29296875 9.421875 C3.28330078 10.44667969 3.27363281 11.47148438 3.26367188 12.52734375 C3.23853516 13.59082031 3.21339844 14.65429688 3.1875 15.75 C3.17396484 16.82894531 3.16042969 17.90789062 3.14648438 19.01953125 C3.11116584 21.6801942 3.06184199 24.33984296 3 27 C1.20759337 26.88610125 -0.58394835 26.75852313 -2.375 26.625 C-3.87160156 26.52058594 -3.87160156 26.52058594 -5.3984375 26.4140625 C-8 26 -8 26 -10 24 C-6.37 24.33 -2.74 24.66 1 25 C0.67 16.75 0.34 8.5 0 0 Z " fill="#887189" transform="translate(130,52)"/>
<path d="M0 0 C2.64 0 5.28 0 8 0 C8 1.98 8 3.96 8 6 C5.36 6 2.72 6 0 6 C0 4.02 0 2.04 0 0 Z " fill="#F1F1F1" transform="translate(131,127)"/>
<path d="M0 0 C2.64 0 5.28 0 8 0 C8 1.65 8 3.3 8 5 C5.36 5 2.72 5 0 5 C0 3.35 0 1.7 0 0 Z " fill="#EBEBEB" transform="translate(131,116)"/>
<path d="M0 0 C2.31 0 4.62 0 7 0 C7.33 1.65 7.66 3.3 8 5 C5.36 5 2.72 5 0 5 C0 3.35 0 1.7 0 0 Z " fill="#FDFDFD" transform="translate(131,105)"/>
<path d="M0 0 C2.31 0 4.62 0 7 0 C7 1.65 7 3.3 7 5 C4.69 5 2.38 5 0 5 C0 3.35 0 1.7 0 0 Z " fill="#FCFCFC" transform="translate(51,128)"/>
<path d="M0 0 C2.31 0 4.62 0 7 0 C7 1.65 7 3.3 7 5 C4.69 5 2.38 5 0 5 C0 3.35 0 1.7 0 0 Z " fill="#FEFEFE" transform="translate(51,105)"/>
<path d="M0 0 C2.31 0 4.62 0 7 0 C7 1.65 7 3.3 7 5 C4.69 5 2.38 5 0 5 C0 3.35 0 1.7 0 0 Z " fill="#FBFBFB" transform="translate(131,94)"/>
<path d="M0 0 C2.31 0 4.62 0 7 0 C7 1.65 7 3.3 7 5 C4.69 5 2.38 5 0 5 C0 3.35 0 1.7 0 0 Z " fill="#FCFCFC" transform="translate(51,94)"/>
<path d="M0 0 C2.31 0 4.62 0 7 0 C7 1.32 7 2.64 7 4 C4.69 4 2.38 4 0 4 C0 2.68 0 1.36 0 0 Z " fill="#FDFDFD" transform="translate(51,117)"/>
<path d="M0 0 C0.66 0 1.32 0 2 0 C2 2.97 2 5.94 2 9 C1.34 9 0.68 9 0 9 C-0.33 8.34 -0.66 7.68 -1 7 C-3.32156597 6.59270772 -5.6568787 6.25561323 -8 6 C-8 5.67 -8 5.34 -8 5 C-5.36 5 -2.72 5 0 5 C0 3.35 0 1.7 0 0 Z " fill="#4C3D4D" transform="translate(139,87)"/>
<path d="M0 0 C2.4294516 3.6441774 2.16179575 5.71241272 2 10 C0.68 10 -0.64 10 -2 10 C-2 9.34 -2 8.68 -2 8 C-1.34 8 -0.68 8 0 8 C0 5.36 0 2.72 0 0 Z " fill="#818181" transform="translate(141,88)"/>
<path d="M0 0 C2 1.25 2 1.25 4 3 C4 4.32 4 5.64 4 7 C2.68 7 1.36 7 0 7 C0 6.34 0 5.68 0 5 C0.66 5 1.32 5 2 5 C1.34 3.35 0.68 1.7 0 0 Z " fill="#787879" transform="translate(139,124)"/>
<path d="M0 0 C2 1.25 2 1.25 4 3 C4 4.32 4 5.64 4 7 C2.68 7 1.36 7 0 7 C0 6.34 0 5.68 0 5 C0.66 5 1.32 5 2 5 C1.34 3.35 0.68 1.7 0 0 Z " fill="#7C7B7C" transform="translate(139,113)"/>
<path d="M0 0 C3 1 3 1 3 1 Z " fill="#000000" transform="translate(157,191)"/>
<path d="M0 0 C3 1 3 1 3 1 Z " fill="#000000" transform="translate(32,191)"/>
<path d="" fill="#000000" transform="translate(0,0)"/>
<path d="" fill="#000000" transform="translate(0,0)"/>
<path d="" fill="#000000" transform="translate(0,0)"/>
<path d="" fill="#000000" transform="translate(0,0)"/>
<path d="" fill="#000000" transform="translate(0,0)"/>
<path d="" fill="#000000" transform="translate(0,0)"/>
<path d="M0 0 C2 1 2 1 2 1 Z " fill="#000000" transform="translate(160,190)"/>
<path d="M0 0 C2 1 2 1 2 1 Z " fill="#000000" transform="translate(30,190)"/>
<path d="M0 0 C2 1 2 1 2 1 Z " fill="#000000" transform="translate(162,189)"/>
<path d="M0 0 C2 1 2 1 2 1 Z " fill="#000000" transform="translate(28,189)"/>
<path d="M0 0 C2 1 2 1 2 1 Z " fill="#000000" transform="translate(164,188)"/>
<path d="M0 0 C2 1 2 1 2 1 Z " fill="#000000" transform="translate(26,188)"/>
<path d="M0 0 C2 1 2 1 2 1 Z " fill="#000000" transform="translate(166,187)"/>
<path d="M0 0 C2 1 2 1 2 1 Z " fill="#000000" transform="translate(24,187)"/>
<path d="" fill="#000000" transform="translate(0,0)"/>
<path d="" fill="#000000" transform="translate(0,0)"/>
<path d="M0 0 C2 1 2 1 2 1 Z " fill="#000000" transform="translate(168,5)"/>
<path d="M0 0 C2 1 2 1 2 1 Z " fill="#000000" transform="translate(22,5)"/>
<path d="M0 0 C2 1 2 1 2 1 Z " fill="#000000" transform="translate(165,3)"/>
<path d="M0 0 C2 1 2 1 2 1 Z " fill="#000000" transform="translate(25,3)"/>
<path d="M0 0 C2 1 2 1 2 1 Z " fill="#000000" transform="translate(163,2)"/>
<path d="M0 0 C2 1 2 1 2 1 Z " fill="#000000" transform="translate(27,2)"/>
<path d="M0 0 C2 1 2 1 2 1 Z " fill="#000000" transform="translate(161,1)"/>
<path d="M0 0 C2 1 2 1 2 1 Z " fill="#000000" transform="translate(29,1)"/>
<path d="M0 0 C2 1 2 1 2 1 Z " fill="#000000" transform="translate(159,0)"/>
<path d="M0 0 C2 1 2 1 2 1 Z " fill="#000000" transform="translate(31,0)"/>
<path d="" fill="#000000" transform="translate(0,0)"/>
<path d="" fill="#000000" transform="translate(0,0)"/>
<path d="" fill="#000000" transform="translate(0,0)"/>
<path d="" fill="#000000" transform="translate(0,0)"/>
<path d="" fill="#000000" transform="translate(0,0)"/>
<path d="" fill="#000000" transform="translate(0,0)"/>
<path d="" fill="#000000" transform="translate(0,0)"/>
<path d="" fill="#000000" transform="translate(0,0)"/>
<path d="" fill="#000000" transform="translate(0,0)"/>
<path d="" fill="#000000" transform="translate(0,0)"/>
<path d="" fill="#000000" transform="translate(0,0)"/>
<path d="" fill="#000000" transform="translate(0,0)"/>
<path d="" fill="#000000" transform="translate(0,0)"/>
<path d="" fill="#000000" transform="translate(0,0)"/>
<path d="" fill="#000000" transform="translate(0,0)"/>
<path d="" fill="#000000" transform="translate(0,0)"/>
<path d="" fill="#000000" transform="translate(0,0)"/>
<path d="" fill="#000000" transform="translate(0,0)"/>
<path d="" fill="#000000" transform="translate(0,0)"/>
<path d="" fill="#000000" transform="translate(0,0)"/>
<path d="" fill="#000000" transform="translate(0,0)"/>
<path d="" fill="#000000" transform="translate(0,0)"/>
<path d="" fill="#000000" transform="translate(0,0)"/>
<path d="" fill="#000000" transform="translate(0,0)"/>
<path d="" fill="#000000" transform="translate(0,0)"/>
<path d="" fill="#000000" transform="translate(0,0)"/>
<path d="" fill="#000000" transform="translate(0,0)"/>
<path d="" fill="#000000" transform="translate(0,0)"/>
<path d="" fill="#000000" transform="translate(0,0)"/>
<path d="" fill="#000000" transform="translate(0,0)"/>
<path d="" fill="#000000" transform="translate(0,0)"/>
<path d="" fill="#000000" transform="translate(0,0)"/>
<path d="" fill="#000000" transform="translate(0,0)"/>
<path d="" fill="#000000" transform="translate(0,0)"/>
<path d="" fill="#000000" transform="translate(0,0)"/>
<path d="" fill="#000000" transform="translate(0,0)"/>
<path d="" fill="#000000" transform="translate(0,0)"/>
<path d="" fill="#000000" transform="translate(0,0)"/>
<path d="" fill="#000000" transform="translate(0,0)"/>
<path d="" fill="#000000" transform="translate(0,0)"/>
</svg>
